<?xml version="1.0" standalone="no"?>
<!DOCTYPE svg PUBLIC "-//W3C//DTD SVG 20010904//EN"
 "http://www.w3.org/TR/2001/REC-SVG-20010904/DTD/svg10.dtd">
<svg version="1.0" xmlns="http://www.w3.org/2000/svg"
 width="6748.000000pt" height="6748.000000pt" viewBox="0 0 6748.000000 6748.000000"
 preserveAspectRatio="xMidYMid meet">
<metadata>
Created by potrace 1.14, written by Peter Selinger 2001-2017
</metadata>
<g transform="translate(0.000000,6748.000000) scale(0.100000,-0.100000)"
fill="#000000" stroke="none">
<path d="M1047 49874 c-143 -33 -258 -158 -284 -309 -5 -27 -8 -761 -8 -1630
1 -1466 3 -1584 18 -1629 51 -143 166 -241 312 -263 17 -3 14711 -6 32655 -7
25266 -1 32640 1 32692 11 114 20 193 73 257 173 19 30 41 80 48 110 10 44 12
373 10 1655 l-2 1600 -21 52 c-44 107 -121 184 -222 225 l-57 22 -32670 2
c-27073 1 -32680 -1 -32728 -12z"/>
<path d="M51315 44477 c-20 -56 -53 -145 -72 -197 -20 -52 -52 -142 -73 -200
-71 -199 -142 -395 -155 -425 -7 -16 -25 -66 -40 -110 -15 -44 -38 -107 -50
-140 -13 -33 -51 -136 -85 -230 -33 -93 -64 -177 -67 -185 -3 -8 -7 -17 -8
-20 -1 -3 -4 -12 -8 -20 -7 -18 -424 -1164 -477 -1310 -47 -132 -385 -1060
-451 -1240 -28 -74 -64 -173 -81 -220 -16 -47 -43 -119 -58 -160 -30 -80 -218
-595 -281 -770 -50 -139 -57 -159 -204 -560 -70 -190 -128 -349 -129 -355 -2
-5 -6 -17 -9 -25 -4 -8 -23 -60 -42 -115 -20 -55 -42 -114 -50 -132 -8 -17
-15 -34 -15 -38 0 -10 -99 -286 -111 -307 -5 -10 -9 -23 -9 -29 0 -6 -6 -25
-14 -42 -8 -18 -26 -66 -40 -107 -15 -41 -30 -84 -35 -95 -5 -11 -41 -110 -80
-220 -40 -110 -78 -216 -86 -235 -15 -38 -281 -768 -322 -885 -13 -38 -28 -79
-33 -90 -9 -22 -148 -402 -216 -590 -23 -66 -56 -156 -72 -200 -16 -44 -60
-163 -96 -265 -37 -102 -73 -201 -81 -220 -21 -56 -51 -136 -101 -275 -25 -71
-59 -164 -74 -205 -72 -196 -123 -337 -131 -360 -4 -14 -19 -56 -34 -95 -15
-38 -62 -167 -105 -285 -43 -118 -142 -390 -220 -605 -154 -421 -185 -507
-230 -630 -65 -181 -113 -314 -140 -385 -16 -41 -59 -158 -96 -260 -36 -102
-77 -214 -91 -250 -13 -36 -31 -84 -39 -107 -8 -23 -27 -77 -43 -120 -15 -43
-58 -159 -94 -258 -36 -99 -70 -191 -75 -205 -6 -14 -25 -65 -42 -115 -17 -49
-35 -99 -40 -110 -5 -11 -72 -193 -148 -405 -353 -974 -413 -1139 -432 -1185
-5 -11 -34 -92 -65 -180 -31 -88 -67 -187 -80 -220 -13 -33 -47 -125 -75 -205
-29 -80 -58 -161 -66 -180 -17 -45 -108 -295 -174 -480 -28 -80 -58 -159 -66
-177 -8 -17 -14 -35 -14 -39 0 -5 -9 -31 -20 -59 -11 -27 -43 -113 -71 -190
-27 -77 -59 -162 -69 -190 -10 -27 -58 -158 -106 -290 -134 -372 -195 -538
-204 -560 -5 -11 -29 -78 -55 -150 -55 -154 -412 -1135 -527 -1450 -44 -121
-105 -287 -135 -370 -30 -82 -63 -174 -74 -202 -10 -29 -28 -79 -40 -110 -11
-32 -27 -74 -34 -93 -8 -19 -50 -136 -95 -260 -45 -124 -90 -247 -100 -275
-11 -27 -35 -93 -53 -145 -52 -146 -167 -462 -177 -487 -5 -13 -42 -112 -81
-220 -39 -109 -81 -225 -94 -258 -12 -33 -30 -82 -40 -110 -9 -27 -21 -59 -25
-70 -9 -21 -28 -74 -90 -245 -89 -247 -123 -340 -220 -605 -57 -154 -120 -327
-141 -385 -89 -245 -100 -275 -107 -281 -4 -4 -43 -12 -87 -18 -44 -7 -93 -15
-110 -18 -16 -2 -43 -6 -60 -9 -16 -2 -41 -6 -55 -8 -14 -3 -45 -8 -70 -11
-25 -4 -58 -8 -75 -11 -16 -3 -41 -7 -55 -9 -39 -6 -99 -15 -160 -25 -30 -5
-75 -12 -100 -15 -25 -3 -52 -8 -60 -10 -8 -2 -35 -6 -60 -9 -25 -3 -54 -8
-65 -10 -12 -2 -48 -8 -80 -12 -33 -4 -62 -9 -65 -9 -3 -1 -27 -5 -55 -10 -27
-4 -59 -9 -70 -11 -10 -2 -37 -6 -60 -9 -22 -3 -83 -13 -135 -21 -52 -8 -111
-17 -130 -20 -19 -3 -46 -7 -60 -9 -14 -3 -43 -7 -65 -11 -22 -3 -51 -7 -65
-9 -37 -6 -362 -56 -385 -59 -90 -13 -183 -28 -196 -32 -14 -4 -16 -93 -16
-954 l0 -950 4198 0 4199 0 0 949 c0 896 -1 950 -17 955 -10 2 -45 7 -78 11
-33 3 -76 7 -95 10 -19 2 -57 7 -85 10 -27 3 -66 8 -85 10 -19 2 -57 7 -85 10
-27 3 -63 7 -80 9 -16 2 -59 7 -95 11 -36 3 -76 8 -90 10 -14 2 -50 7 -80 10
-30 3 -89 10 -130 15 -41 5 -100 12 -130 15 -57 6 -116 13 -160 20 -14 2 -54
6 -90 10 -36 4 -78 8 -95 10 -16 2 -55 7 -85 10 -30 3 -68 8 -85 10 -16 2 -59
6 -95 10 -36 4 -72 8 -80 10 -8 3 -46 7 -85 10 -38 3 -79 8 -91 10 -11 1 -52
6 -90 10 -38 4 -77 9 -88 11 -10 2 -44 6 -75 9 -31 3 -69 8 -86 10 -16 2 -57
6 -90 10 -102 11 -109 14 -130 39 -11 13 -74 91 -139 172 -66 82 -125 154
-130 159 -6 6 -24 28 -41 50 -16 22 -39 50 -51 63 l-21 23 60 167 c33 92 72
203 88 247 15 44 48 136 72 205 24 69 75 211 112 315 36 105 70 199 75 210 5
11 14 36 20 55 14 41 53 151 110 310 23 63 50 140 60 170 10 30 35 100 55 155
20 55 52 143 70 195 18 52 56 158 83 235 27 77 87 244 131 370 45 127 93 259
106 295 13 36 49 137 80 225 30 88 59 169 64 180 5 11 38 103 74 205 36 102
93 264 127 360 34 96 89 252 122 345 32 94 63 179 68 190 4 11 27 74 50 140
23 66 64 181 90 255 45 125 127 354 265 745 31 88 95 268 142 400 47 132 105
294 128 360 24 66 54 151 67 189 l25 69 4234 -1 c2329 0 4244 -1 4257 -1 12
-1 25 -7 27 -13 7 -22 415 -1179 445 -1263 16 -44 47 -134 70 -200 22 -66 45
-129 50 -140 8 -17 63 -172 90 -255 5 -14 31 -90 60 -170 81 -227 169 -476
205 -580 18 -52 56 -160 84 -240 29 -80 79 -221 112 -315 34 -93 74 -206 89
-250 43 -120 138 -389 240 -680 50 -143 95 -269 100 -280 4 -11 29 -81 55
-155 25 -74 57 -164 70 -200 13 -36 42 -119 65 -185 23 -66 44 -127 47 -135 4
-8 7 -17 7 -20 2 -10 68 -195 76 -215 5 -11 16 -40 24 -65 8 -25 36 -103 61
-175 26 -71 73 -206 106 -300 33 -93 62 -177 66 -185 3 -8 29 -82 58 -165 29
-82 76 -216 104 -296 l52 -145 -142 -245 c-78 -134 -142 -245 -143 -246 -1 -1
-26 -5 -56 -8 -30 -3 -71 -8 -90 -10 -19 -2 -64 -7 -100 -10 -36 -3 -81 -8
-100 -10 -19 -2 -66 -7 -105 -11 -38 -3 -81 -7 -95 -9 -14 -1 -56 -5 -95 -9
-38 -3 -86 -8 -105 -11 -19 -3 -64 -7 -100 -10 -36 -3 -78 -7 -95 -9 -16 -2
-66 -7 -110 -11 -44 -4 -87 -9 -96 -10 -9 -2 -52 -6 -95 -10 -43 -4 -90 -8
-104 -10 -14 -2 -59 -7 -100 -10 -41 -4 -88 -9 -105 -11 -16 -2 -59 -6 -95 -9
-36 -3 -81 -8 -100 -10 -143 -16 -137 -16 -295 -30 -33 -3 -76 -8 -95 -10 -19
-3 -60 -7 -90 -10 -30 -2 -82 -8 -115 -12 -33 -4 -64 -6 -69 -5 -4 2 -17 0
-27 -3 -18 -6 -19 -32 -19 -956 l0 -949 5265 0 5264 0 -2 952 c-2 837 -4 951
-17 954 -8 1 -31 5 -50 8 -50 9 -139 24 -180 31 -19 3 -42 8 -50 10 -8 2 -33
6 -55 10 -22 3 -116 19 -210 35 -93 17 -183 33 -200 35 -16 3 -52 10 -80 15
-55 10 -113 20 -160 26 -28 4 -170 29 -305 54 -56 11 -437 76 -499 86 -18 3
-43 8 -55 10 -36 7 -370 65 -400 69 -16 3 -33 8 -37 12 -5 5 -49 119 -99 253
-50 135 -97 261 -105 280 -8 19 -59 157 -114 305 -54 149 -276 744 -491 1324
-215 580 -397 1071 -404 1090 -51 141 -69 189 -77 206 -9 20 -171 458 -305
825 -42 113 -79 214 -85 225 -5 11 -38 101 -75 200 -36 99 -94 257 -129 350
-124 332 -287 772 -336 905 -57 154 -88 236 -100 265 -4 11 -47 126 -94 255
-189 511 -273 738 -284 765 -5 11 -14 36 -21 55 -21 61 -53 144 -66 177 -8 17
-14 34 -14 37 0 3 -57 158 -126 343 -69 186 -170 460 -225 608 -55 149 -107
286 -114 305 -8 19 -80 213 -160 430 -80 217 -149 404 -154 415 -5 11 -39 103
-76 205 -38 102 -74 199 -81 215 -7 17 -19 50 -27 75 -8 25 -20 56 -26 70 -5
14 -56 149 -111 300 -56 151 -105 284 -110 295 -5 11 -25 65 -45 120 -19 55
-39 109 -44 120 -8 19 -20 50 -69 185 -25 69 -80 214 -97 260 -8 19 -25 67
-38 105 -14 39 -30 81 -36 95 -6 14 -69 185 -141 380 -160 433 -168 456 -186
500 -14 37 -210 566 -270 730 -19 52 -39 104 -44 115 -5 11 -158 423 -340 915
-182 492 -337 911 -345 930 -8 19 -62 166 -120 325 -59 160 -111 299 -116 310
-4 11 -32 83 -60 160 -28 77 -80 217 -114 310 -146 391 -257 691 -318 855 -36
96 -102 274 -147 395 -45 121 -106 288 -136 370 -30 83 -61 166 -69 185 -8 19
-50 132 -94 250 -44 118 -122 330 -174 470 -52 140 -125 336 -162 435 -37 99
-111 299 -165 445 -54 146 -164 443 -245 660 -80 217 -152 411 -159 430 -8 19
-23 60 -35 90 -11 30 -77 208 -146 395 -70 187 -165 444 -212 570 -46 127 -97
264 -113 305 -28 73 -96 257 -405 1090 -80 217 -185 499 -233 627 l-87 232
-2046 0 -2046 0 -38 -102z m1025 -5612 c67 -187 146 -405 175 -485 29 -80 77
-210 105 -290 28 -80 60 -165 70 -190 10 -25 23 -61 28 -80 6 -19 29 -84 52
-145 22 -60 50 -137 61 -169 11 -33 42 -119 69 -190 40 -110 118 -324 256
-711 14 -38 32 -86 39 -105 8 -19 28 -75 45 -125 17 -49 36 -101 42 -115 5
-14 32 -86 58 -160 58 -164 272 -753 382 -1055 44 -121 86 -238 93 -260 8 -22
28 -78 45 -125 17 -47 54 -148 81 -225 28 -77 57 -157 65 -178 8 -21 35 -95
60 -165 25 -70 54 -149 64 -177 24 -63 229 -633 386 -1070 14 -38 32 -86 39
-105 8 -19 54 -147 104 -285 49 -137 164 -457 256 -710 150 -416 195 -540 270
-745 13 -36 83 -229 155 -430 72 -201 139 -387 150 -415 38 -99 200 -552 200
-558 0 -3 -1546 -6 -3435 -6 -1889 0 -3435 1 -3435 4 0 2 5 16 11 32 12 29
107 301 190 538 26 77 62 178 79 225 17 47 37 103 44 125 7 22 27 78 44 125
51 140 144 404 148 420 2 8 35 103 73 210 82 232 226 639 380 1080 32 91 100
282 150 425 51 143 94 267 97 275 3 13 52 151 67 190 3 8 37 105 76 215 85
242 265 756 476 1355 86 245 165 472 177 505 11 33 24 69 28 80 9 23 64 177
66 185 0 3 3 12 7 20 3 8 33 94 67 190 82 236 128 365 195 555 57 160 361
1028 430 1225 20 58 40 114 45 125 5 11 63 178 130 370 67 193 125 359 130
370 7 17 113 318 248 707 15 42 30 74 33 70 4 -4 61 -160 129 -347z"/>
<path d="M727 44288 c-11 -7 -16 -1883 -5 -1894 7 -7 39 -11 158 -19 52 -3
115 -8 140 -10 85 -8 165 -14 245 -20 44 -3 98 -7 120 -9 22 -2 81 -7 130 -11
50 -3 101 -8 115 -10 14 -2 70 -6 125 -10 55 -3 111 -8 125 -10 14 -2 70 -7
125 -10 55 -3 113 -8 130 -10 16 -2 73 -7 125 -10 52 -4 111 -8 130 -10 19 -2
72 -6 116 -9 78 -6 139 -11 249 -21 28 -2 91 -7 140 -11 50 -4 101 -8 115 -10
14 -1 39 -2 56 -3 16 -1 39 -9 50 -18 10 -10 53 -47 94 -83 41 -36 77 -67 80
-70 3 -3 43 -39 90 -80 47 -41 90 -79 96 -85 6 -6 35 -31 64 -56 28 -24 62
-53 74 -64 12 -11 43 -38 67 -60 l45 -40 0 -10398 -1 -10398 -120 -115 c-66
-64 -192 -186 -280 -271 -88 -86 -176 -170 -195 -188 -32 -30 -42 -34 -115
-40 -44 -3 -93 -8 -110 -10 -16 -2 -70 -7 -120 -10 -49 -4 -101 -8 -115 -10
-14 -2 -65 -7 -115 -11 -49 -3 -97 -7 -105 -9 -9 -2 -60 -6 -115 -10 -55 -4
-107 -9 -116 -10 -9 -2 -58 -6 -110 -9 -52 -4 -105 -9 -119 -11 -14 -2 -61 -7
-105 -10 -44 -4 -96 -8 -115 -10 -19 -2 -73 -6 -120 -10 -47 -3 -95 -8 -107
-10 -12 -2 -66 -6 -120 -10 -54 -3 -109 -8 -123 -10 -14 -3 -61 -7 -105 -10
-44 -3 -96 -8 -115 -10 -63 -7 -254 -24 -323 -29 -15 -1 -31 -6 -35 -13 -8
-12 -8 -1880 0 -1888 6 -6 20927 -7 20936 -1 4 2 7 1574 7 3493 l0 3488 -1342
1 -1343 0 -5 -30 c-3 -17 -7 -44 -10 -61 -3 -16 -8 -49 -11 -71 -2 -23 -7 -52
-9 -65 -3 -13 -7 -41 -10 -64 -3 -22 -13 -83 -21 -135 -8 -52 -17 -111 -20
-130 -3 -19 -7 -46 -9 -60 -2 -14 -7 -45 -10 -70 -3 -25 -15 -99 -25 -165 -11
-66 -22 -140 -25 -165 -3 -25 -10 -70 -15 -100 -13 -74 -18 -107 -25 -160 -8
-54 -16 -107 -20 -129 -1 -9 -6 -41 -10 -71 -4 -30 -9 -64 -11 -75 -2 -11 -7
-40 -10 -65 -3 -25 -7 -52 -9 -60 -2 -14 -10 -64 -20 -130 -14 -92 -66 -431
-71 -460 -12 -81 -16 -110 -30 -200 -8 -52 -17 -106 -19 -120 -2 -14 -7 -45
-10 -70 -8 -60 -14 -100 -20 -130 -3 -14 -7 -45 -10 -70 -5 -45 -21 -147 -29
-186 -2 -12 -7 -45 -11 -75 -3 -30 -8 -61 -10 -69 -2 -8 -6 -35 -9 -60 -3 -25
-8 -55 -10 -66 -5 -24 -11 -66 -22 -139 -3 -27 -8 -59 -10 -70 -2 -10 -6 -37
-9 -60 -4 -22 -12 -80 -20 -130 -8 -49 -17 -110 -20 -135 -3 -25 -8 -56 -10
-70 -12 -57 -13 -68 -20 -125 -4 -33 -11 -70 -16 -82 -7 -18 -425 -601 -450
-628 -9 -9 -9051 -16 -9091 -7 -17 4 -18 254 -18 5067 l0 5062 2543 0 2543 0
266 -266 c243 -243 267 -270 272 -306 4 -23 8 -50 10 -60 2 -11 7 -49 12 -85
4 -36 8 -67 9 -70 1 -3 5 -32 9 -65 4 -32 10 -68 12 -80 2 -11 6 -38 9 -60 8
-64 14 -107 19 -145 3 -19 8 -55 11 -80 4 -25 13 -85 20 -135 8 -49 17 -112
20 -140 4 -27 8 -61 11 -75 2 -14 7 -45 9 -70 3 -25 8 -56 10 -70 3 -14 7 -47
11 -75 3 -27 8 -58 10 -68 5 -26 35 -247 40 -285 2 -18 5 -41 8 -50 3 -9 8
-46 11 -82 4 -36 8 -67 10 -70 2 -3 6 -30 10 -60 3 -30 8 -66 10 -80 2 -14 6
-45 9 -70 4 -25 8 -56 11 -70 4 -23 11 -69 19 -137 2 -15 7 -46 10 -68 5 -39
32 -225 41 -295 3 -19 7 -48 10 -65 3 -16 7 -48 10 -70 3 -22 8 -54 11 -70 l5
-30 1147 1 c631 1 1149 2 1152 3 3 0 5 2034 4 4518 l0 4518 -1152 3 -1152 2
-4 -22 c-3 -13 -7 -41 -10 -63 -3 -22 -14 -105 -26 -185 -11 -80 -23 -163 -26
-185 -3 -22 -7 -51 -9 -65 -2 -14 -7 -45 -10 -70 -3 -25 -8 -56 -10 -70 -2
-14 -7 -45 -10 -70 -3 -25 -8 -56 -10 -70 -2 -14 -7 -43 -10 -65 -2 -22 -7
-51 -9 -65 -3 -14 -7 -47 -11 -75 -3 -27 -15 -111 -26 -185 -11 -74 -21 -148
-24 -165 -11 -82 -18 -132 -21 -149 -2 -11 -8 -56 -14 -100 -12 -85 -17 -124
-25 -166 -2 -14 -7 -47 -10 -75 -3 -27 -10 -77 -15 -110 -5 -33 -12 -80 -15
-105 -3 -25 -12 -88 -20 -140 -8 -52 -17 -117 -21 -145 -3 -27 -7 -57 -9 -65
-4 -22 -14 -88 -20 -135 -3 -23 -7 -50 -9 -60 -2 -11 -7 -45 -10 -75 -4 -30
-8 -64 -11 -75 -2 -11 -4 -25 -4 -31 -1 -11 -38 -50 -335 -358 l-199 -206
-2543 0 -2544 0 0 4645 0 4645 23 1 c29 1 7747 1 7769 0 10 -1 40 -29 69 -63
28 -35 61 -74 73 -88 11 -14 37 -45 56 -70 19 -25 45 -56 57 -70 110 -128 184
-229 189 -260 3 -19 24 -125 45 -235 22 -110 42 -211 44 -225 3 -14 14 -72 25
-130 12 -58 23 -116 26 -130 2 -14 18 -92 34 -175 16 -82 31 -161 34 -175 3
-14 10 -50 16 -80 6 -30 13 -68 16 -85 3 -16 14 -75 25 -130 11 -55 22 -111
24 -125 2 -14 14 -72 25 -130 12 -58 24 -116 26 -130 2 -14 9 -47 14 -75 5
-27 12 -61 14 -75 3 -14 7 -36 10 -50 3 -14 9 -41 12 -60 4 -19 8 -42 9 -50 2
-8 13 -62 24 -120 12 -58 24 -118 27 -135 3 -16 11 -61 19 -100 16 -83 75
-389 81 -425 3 -14 7 -32 9 -40 2 -8 7 -31 10 -50 3 -19 8 -42 10 -50 2 -8 7
-31 10 -50 3 -19 13 -69 21 -110 18 -83 18 -87 30 -150 4 -25 9 -48 10 -52 1
-5 2 -17 3 -28 1 -20 8 -20 1356 -20 l1355 0 -2 3056 -3 3056 -9823 2 c-5403
0 -9829 -2 -9835 -6z"/>
<path d="M23879 44290 l-24 -5 0 -947 c0 -634 3 -948 10 -949 5 0 21 -2 35 -4
14 -1 72 -6 130 -10 117 -8 141 -10 250 -19 91 -8 230 -18 415 -31 44 -3 100
-8 125 -10 25 -3 81 -7 125 -10 44 -3 105 -8 135 -10 30 -3 87 -7 125 -10 39
-2 95 -6 125 -9 30 -3 96 -8 145 -11 50 -3 106 -8 125 -10 19 -2 76 -7 125
-10 136 -9 215 -15 270 -20 28 -2 82 -7 120 -9 261 -20 229 -11 312 -86 28
-25 78 -70 113 -100 35 -30 73 -64 86 -75 12 -11 96 -85 187 -164 l164 -144 0
-10398 0 -10398 -216 -210 c-119 -115 -261 -252 -316 -305 -70 -68 -107 -96
-125 -97 -14 0 -41 -2 -60 -4 -116 -11 -232 -22 -325 -30 -38 -3 -92 -8 -120
-10 -152 -15 -200 -19 -330 -30 -38 -3 -86 -7 -105 -10 -19 -2 -71 -7 -115
-10 -44 -3 -91 -8 -105 -10 -14 -2 -63 -7 -110 -10 -47 -4 -101 -8 -120 -10
-19 -2 -75 -6 -125 -10 -49 -3 -97 -8 -105 -10 -8 -2 -53 -7 -100 -10 -47 -3
-101 -8 -120 -10 -19 -2 -71 -6 -115 -10 -44 -3 -91 -8 -105 -10 -14 -2 -64
-6 -111 -10 -47 -3 -95 -8 -105 -10 -11 -2 -23 -4 -29 -4 -7 -1 -10 -325 -10
-951 l0 -950 5762 0 5761 0 -1 952 -2 952 -35 2 c-59 3 -213 15 -250 19 -19 2
-75 7 -125 10 -101 6 -170 11 -265 19 -36 3 -96 8 -135 11 -38 3 -95 7 -125
10 -30 2 -93 7 -140 10 -47 4 -101 8 -120 10 -19 2 -82 6 -140 10 -58 3 -118
8 -135 10 -16 3 -70 7 -120 10 -49 3 -112 7 -140 10 -27 2 -86 7 -130 10 -44
3 -100 8 -125 10 -25 2 -85 7 -135 10 -49 4 -106 8 -125 10 -19 1 -80 6 -135
10 -148 11 -161 12 -265 20 l-95 7 -50 46 c-28 26 -93 85 -145 132 -51 47
-108 99 -126 115 -17 17 -73 68 -125 115 -51 47 -103 94 -115 105 -96 87 -104
97 -104 123 -5 269 0 9066 5 9070 3 3 1181 6 2617 6 2472 1 2612 0 2631 -16
11 -10 74 -69 141 -130 434 -406 395 -364 401 -428 3 -30 8 -64 10 -75 2 -11
7 -40 10 -65 3 -25 7 -55 9 -67 3 -12 8 -53 11 -90 4 -37 9 -75 10 -83 5 -30
15 -96 20 -140 3 -25 8 -61 11 -80 2 -19 7 -51 9 -70 13 -97 36 -273 45 -338
5 -40 12 -94 16 -120 3 -26 7 -58 9 -72 2 -14 7 -47 10 -75 7 -50 11 -80 19
-132 3 -16 7 -50 10 -78 8 -65 17 -134 21 -165 4 -22 12 -85 20 -145 1 -11 7
-56 13 -100 6 -44 14 -102 17 -130 3 -27 10 -77 15 -110 5 -33 12 -85 16 -115
4 -30 8 -64 9 -75 2 -11 8 -58 14 -105 19 -140 21 -155 25 -177 3 -12 8 -53
12 -90 3 -37 8 -75 9 -83 2 -13 138 -15 1153 -16 1042 0 1152 1 1152 15 1 21
1 8971 1 9036 l-1 51 -1150 0 -1149 -1 -6 -25 c-2 -14 -9 -65 -15 -115 -6 -49
-13 -101 -15 -115 -2 -14 -7 -50 -10 -80 -4 -30 -9 -64 -11 -75 -2 -11 -6 -42
-9 -70 -4 -27 -8 -61 -10 -75 -2 -14 -9 -63 -15 -110 -6 -47 -15 -114 -20
-150 -5 -36 -12 -83 -14 -105 -3 -22 -17 -125 -31 -230 -30 -225 -54 -406 -60
-455 -3 -19 -7 -51 -10 -70 -11 -85 -14 -108 -20 -155 -4 -27 -13 -95 -20
-150 -8 -55 -17 -125 -21 -155 -3 -30 -8 -62 -9 -70 -1 -8 -6 -40 -10 -70 -4
-30 -9 -62 -10 -70 -2 -8 -6 -42 -9 -75 -4 -33 -9 -71 -11 -85 -2 -14 -7 -45
-10 -70 -3 -25 -8 -56 -10 -70 -2 -14 -7 -47 -10 -75 -15 -134 -12 -126 -83
-195 -64 -62 -296 -279 -351 -329 -14 -13 -50 -47 -80 -75 l-55 -51 -2614 0
c-1438 0 -2616 4 -2619 8 -3 5 -7 9202 -3 9648 l0 56 3770 0 3769 0 248 -249
c136 -137 249 -250 250 -251 1 -1 4 -29 8 -62 3 -33 8 -67 10 -75 3 -8 7 -33
10 -55 4 -22 8 -51 11 -65 2 -14 8 -54 14 -90 16 -109 21 -144 26 -170 2 -14
13 -83 24 -155 11 -71 22 -141 24 -155 12 -67 28 -172 31 -192 3 -27 14 -101
21 -141 2 -16 16 -100 29 -187 26 -166 32 -209 40 -250 2 -14 7 -45 10 -70 8
-56 10 -74 29 -185 9 -49 18 -106 20 -125 3 -19 7 -53 11 -75 3 -22 13 -83 21
-135 8 -52 17 -108 19 -125 6 -41 14 -89 25 -155 5 -30 12 -73 15 -95 3 -23 7
-50 9 -62 5 -24 12 -67 22 -138 3 -27 8 -59 10 -70 5 -21 10 -58 19 -122 3
-21 17 -108 30 -193 14 -85 30 -186 36 -225 6 -38 13 -78 15 -89 2 -10 6 -44
10 -75 3 -31 8 -59 10 -62 1 -3 6 -28 10 -55 3 -27 9 -67 13 -89 l7 -40 1342
-1 1342 -1 -2 3275 -3 3275 -9761 1 c-5368 0 -9771 -1 -9785 -4z"/>
</g>
</svg>
